<svg version="1.1" id="Layer_1" xmlns="http://www.w3.org/2000/svg" xmlns:xlink="http://www.w3.org/1999/xlink" x="0px" y="0px"
	 width="100%" viewBox="0 0 1024 672" enable-background="new 0 0 1024 672" xml:space="preserve">
<path fill="#000000" opacity="1.000000" stroke="none" 
	d="
M584.703613,189.341217 
	C548.564514,176.594727 512.850159,176.674576 478.245209,192.370239 
	C432.748444,213.006058 405.576904,249.188385 398.660980,298.226196 
	C390.337646,357.243469 411.374146,405.129517 462.451111,436.908905 
	C496.652313,458.188416 533.770264,462.033691 571.115784,443.696686 
	C594.883545,432.026489 611.506348,413.087311 622.858154,389.357941 
	C624.653503,385.604980 626.450867,381.852905 628.285217,378.119019 
	C628.397949,377.889587 628.844666,377.824219 629.138000,377.686768 
	C630.596130,383.240662 621.326233,403.951996 610.237427,419.772125 
	C601.062805,432.861420 589.077393,442.943420 574.946655,451.350861 
	C582.114380,453.952576 610.536316,441.403076 627.525085,426.546844 
	C642.602112,413.362427 654.950928,398.056488 664.327454,380.274567 
	C673.608154,362.674255 679.293823,344.089325 680.775879,323.306000 
	C682.993835,325.632507 682.736206,327.625854 682.595764,329.374237 
	C678.935242,374.945343 662.572266,414.813293 628.404541,446.037659 
	C600.142151,471.865479 566.736206,486.888306 528.393311,490.402649 
	C463.621948,496.339233 398.359222,460.985168 367.472870,403.649384 
	C351.420502,373.850616 343.458038,342.192688 345.891052,308.500671 
	C351.596985,229.485199 405.368652,163.807388 485.893280,149.031235 
	C558.188538,135.765167 633.329346,175.643356 664.387817,242.529556 
	C674.042664,263.321899 679.640747,285.052155 681.442383,307.832581 
	C681.533508,308.984406 681.507690,310.150299 681.449890,311.305298 
	C681.437500,311.553741 681.050232,311.783417 680.261292,312.659515 
	C671.327759,253.642807 639.241760,212.922073 584.703613,189.341217 
z"/>
<path fill="#000000" opacity="1.000000" stroke="none" 
	d="
M620.812256,329.189575 
	C613.420349,321.272949 603.722351,319.488953 593.820679,317.308960 
	C604.067139,313.901123 614.715759,311.767731 622.185486,303.331360 
	C629.559814,295.002777 630.679077,284.245209 633.719299,273.510834 
	C637.743958,298.995972 650.902283,314.745087 677.941345,316.791382 
	C666.984070,319.932434 655.963074,320.812103 647.592285,328.828644 
	C639.164001,336.900208 637.192627,347.819641 633.559814,358.423889 
	C630.426697,348.192444 628.877747,337.427917 620.812256,329.189575 
z"/>
</svg>